<svg width="44" height="34" viewBox="0 0 44 34" fill="none" xmlns="http://www.w3.org/2000/svg">
<path d="M0 34L3.09283 25.2691C1.18433 22.7134 0.1815 19.8163 0.183333 16.8456C0.188833 7.55792 9.96964 0 21.9871 0C27.8189 0.00141667 33.2933 1.75667 37.4109 4.94133C41.5267 8.126 43.7927 12.359 43.7909 16.8612C43.7854 26.1503 34.0046 33.7082 21.9871 33.7082C18.3388 33.7067 14.7436 32.9998 11.5591 31.6568L0 34ZM12.0945 28.6068C15.1671 30.0163 18.1005 30.8607 21.9798 30.8621C31.9678 30.8621 40.1041 24.5806 40.1096 16.8583C40.1132 9.1205 32.0154 2.8475 21.9944 2.84467C11.9991 2.84467 3.86832 9.12617 3.86466 16.847C3.86282 19.9991 5.05816 22.3592 7.06565 24.8285L5.23415 29.9965L12.0945 28.6068ZM32.9706 20.8661C32.8349 20.6904 32.4719 20.5856 31.9256 20.3745C31.3811 20.1634 28.7026 19.1448 28.2021 19.0046C27.7034 18.8643 27.3404 18.7935 26.9756 19.2157C26.6126 19.6364 25.5676 20.5856 25.2504 20.8661C24.9333 21.1466 24.6143 21.182 24.0698 20.9709C23.5253 20.7598 21.7689 20.3164 19.6881 18.8813C18.0693 17.765 16.9748 16.3866 16.6576 15.9644C16.3405 15.5437 16.6246 15.3156 16.896 15.1059C17.1416 14.9175 17.4405 14.6143 17.7136 14.3678C17.9905 14.1242 18.0803 13.9485 18.2636 13.6666C18.4451 13.3861 18.3553 13.1396 18.2178 12.9285C18.0803 12.7188 16.9913 10.6462 16.5385 9.80333C16.0948 8.98308 15.6456 9.09358 15.312 9.08083L14.267 9.06667C13.904 9.06667 13.3136 9.1715 12.815 9.59367C12.3163 10.0158 10.9083 11.033 10.9083 13.1056C10.9083 15.1782 12.8608 17.1799 13.1321 17.4604C13.4053 17.7409 16.973 21.9937 22.4381 23.817C23.7379 24.2505 24.7536 24.5097 25.5438 24.7038C26.8491 25.024 28.0371 24.9787 28.9758 24.871C30.0226 24.7506 32.1988 23.8524 32.6534 22.8692C33.1081 21.8847 33.1081 21.0417 32.9706 20.8661Z" fill="white"/>
</svg>
